<?xml version="1.0" encoding="UTF-8"?>
<svg width="299px" height="303px" viewBox="0 0 299 303" version="1.1" xmlns="http://www.w3.org/2000/svg" xmlns:xlink="http://www.w3.org/1999/xlink">
    <!-- Generator: Sketch 40 (33762) - http://www.bohemiancoding.com/sketch -->
    <title>Colored</title>
    <desc>Created with Sketch.</desc>
    <defs>
        <path d="M149.5,0 L70.00362,0 C65.5861825,0 62,3.57988082 62,7.99588761 L62,83.9916711 C62,87.867574 58.9521944,90.2888454 55.1925356,89.4115916 L37.8376869,85.3621269 C34.6098229,84.6089587 32,86.6856987 32,89.9986759 L32,97.0013241 C32,100.318062 34.6136215,103.609845 37.8376869,104.362127 L55.1925356,108.411592 C58.9444144,109.28703 65.1327572,110 68.9972089,110 L149.5,110 L230.002791,110 C233.867243,110 240.055586,109.28703 243.807464,108.411592 L261.162313,104.362127 C264.386379,103.609845 267,100.318062 267,97.0013241 L267,89.9986759 C267,86.6856987 264.390177,84.6089587 261.162313,85.3621269 L243.807464,89.4115916 C240.047806,90.2888454 237,87.867574 237,83.9916711 L237,7.99588761 C237,3.57988082 233.413818,0 228.99638,0 L149.5,0 Z" id="path-1"></path>
        <mask id="mask-2" maskContentUnits="userSpaceOnUse" maskUnits="objectBoundingBox" x="0" y="0" width="235" height="110" fill="white">
            <use xlink:href="#path-1"></use>
        </mask>
        <rect id="path-3" x="62" y="63" width="175" height="19"></rect>
        <mask id="mask-4" maskContentUnits="userSpaceOnUse" maskUnits="objectBoundingBox" x="0" y="0" width="175" height="19" fill="white">
            <use xlink:href="#path-3"></use>
        </mask>
        <rect id="path-5" x="138" y="59" width="22" height="27"></rect>
        <mask id="mask-6" maskContentUnits="userSpaceOnUse" maskUnits="objectBoundingBox" x="0" y="0" width="22" height="27" fill="white">
            <use xlink:href="#path-5"></use>
        </mask>
        <path d="M149,205.037637 C147.803549,205.049145 145.080426,204.830154 141.658945,203 C136.712072,200.353912 130.213569,194.681327 121.659672,193 C112.464754,191.192676 104.363816,198 92.6593408,193 C80.9548657,188 73.3638534,170.832033 73.3638534,170.832033 C70.6855594,165.99425 68.6590665,157.524932 68.6590665,152.004657 L68.6590665,110 L62.6589979,110 L58.0155245,227.014194 C57.818937,231.968141 59.5122326,239.579209 61.7983839,243.994388 C61.7983839,243.994388 67.6590551,257 77.6591693,267 C87.6592836,277 107.832558,292.41632 115,296 C127.520585,302.260221 145.367599,302.921818 149,302.991738 C149,303 149.113718,303 149.329996,302.997141 C149.546275,303 149.659992,303 149.659992,303 C153.292394,302.921818 171.139407,302.260221 183.659992,296 C190.827434,292.41632 211.000709,277 221.000823,267 C231.000937,257 236.861608,243.994388 236.861608,243.994388 C239.14776,239.579209 240.841055,231.968141 240.644468,227.014194 L236.000994,110 L230.000926,110 L230.000926,152.004657 C230.000926,157.524932 227.974433,165.99425 225.296139,170.832033 C225.296139,170.832033 217.705127,188 206.000651,193 C194.296176,198 186.195239,191.192676 177.00032,193 C168.446423,194.681327 161.94792,200.353912 157.001048,203 C153.579567,204.830154 150.856443,205.049145 149.659992,205.037637 L149.659992,205 C149.659992,205 149.545655,205.016481 149.329996,205.027749 C149.114337,205.016481 149,205 149,205 L149,205.037637 Z" id="path-7"></path>
        <mask id="mask-8" maskContentUnits="userSpaceOnUse" maskUnits="objectBoundingBox" x="0" y="0" width="182.659992" height="193" fill="white">
            <use xlink:href="#path-7"></use>
        </mask>
    </defs>
    <g id="Page-1" stroke="none" stroke-width="1" fill="none" fill-rule="evenodd">
        <g id="Colored">
            <use id="Combined-Shape" stroke="#979797" mask="url(#mask-2)" stroke-width="2" fill="#417505" xlink:href="#path-1"></use>
            <use id="Rectangle-8" stroke="#979797" mask="url(#mask-4)" stroke-width="2" fill="#8B572A" xlink:href="#path-3"></use>
            <use id="Rectangle-9" stroke="#F8E71C" mask="url(#mask-6)" stroke-width="8" xlink:href="#path-5"></use>
            <use id="Combined-Shape" stroke="#979797" mask="url(#mask-8)" stroke-width="2" fill="#F5A623" xlink:href="#path-7"></use>
            <path d="M217.119899,217.998018 C217.119899,215.23825 219.365884,213.001016 222.113815,213.001016 L239.011312,213.001016 C241.769376,213.001016 244.005228,215.240689 244.005228,217.998018 L244.005228,237.990838 L217.119899,237.990838 L217.119899,217.998018 Z M156.005228,262.10263 C156.005228,260.448179 156.874942,258.082886 157.94486,256.82305 L161.260872,252.918422 C162.691867,251.233414 165.593955,249.479042 167.747259,248.998942 L217.119899,237.990838 L244.005228,237.990838 L244.005228,246.980672 C244.005228,249.192502 242.23912,251.26471 240.060927,251.609013 L168.8508,262.865056 C166.125597,263.295823 161.960817,264.747078 159.567373,266.09589 L158.617562,266.631151 C157.17481,267.444205 156.005228,266.756474 156.005228,265.107667 L156.005228,262.10263 Z" id="Tube" fill="#8B572A" transform="translate(200.005228, 239.987060) rotate(22.000000) translate(-200.005228, -239.987060) "></path>
        </g>
    </g>
</svg>